<?xml version="1.0" encoding="utf-8"?>
<!-- Generator: Adobe Illustrator 19.2.1, SVG Export Plug-In . SVG Version: 6.00 Build 0)  -->
<svg version="1.1" id="Layer_1" xmlns="http://www.w3.org/2000/svg" xmlns:xlink="http://www.w3.org/1999/xlink" x="0px" y="0px"
	 viewBox="0 0 42.4 59.3" style="enable-background:new 0 0 42.4 59.3;" xml:space="preserve">
<style type="text/css">
	.st0{fill:#7C6D8B;}
</style>
<g>
	<g>
		<path class="st0" d="M21.2,27.6c-0.1-0.7-0.1-1.6-0.2-2.9l0.2-1.6c-1.6,0.2-3,0.5-4.2,0.9c-2.7,1-5.3,2.5-7.6,4.7
			C7,31.1,5.1,33.9,4,37.2c-1.1,3.4-1.5,6-1.5,7.7c0.5-3,1-5,1.8-6.2C3.9,45,3.3,50.8,3.2,56.1h3.4c0.1-1.6,0.4-3.3,1.2-4.8
			c1.6-3.7,4.5-5.6,8.6-5.7c2.1,0,3.8,0.3,5.2,1.1c1.6,0.8,3,2.4,4.1,4.7c0.7,1.5,1.2,2.9,1.4,4.1c0,0.3,0,0.5,0.1,0.6h3.2
			c-0.1-9.3-0.1-14.7,0.1-16.7c0.1-1.2,0.4-2.5,0.7-4.1c0.3-1.3,0.5-2.3,0.7-3c0.1-0.1,0.9-1.7,2.5-4.8c1.5-3.2,2.7-5.6,3.4-7.2
			c0.8-2.1,1.4-4.4,1.8-6.6c0.5-2.5,0.5-4.4,0.2-6.1C39.4,6,38.8,4.9,38,4.2c-0.8-0.6-1.8-0.9-3.2-1c-1.4,0-2.5,0.4-3.5,1.2
			c-0.2,0.1-0.7,0.7-1.6,1.9c-0.6,0.7-1.4,1.1-2.2,0.8c-0.9-0.2-1.3-1-1.2-2.4l-1.6,0.5c0.1,1.1,0.3,1.8,0.5,2.3
			c0.5,0.8,1.4,1.4,2.5,1.6c1.4,0.5,2.9-0.1,4.2-1.5c1.2-1.3,2.4-1.7,3.5-1.2c0.6,0.4,0.8,0.9,0.8,1.7c0.1,0.8,0,1.5-0.4,2.3
			c-0.5,0.9-1,1.5-1.6,1.9c-0.5,0.3-2,0.6-4.3,1.4c-1.9,0.5-3.4,1.2-4.4,1.9c-0.7,0.5-1.5,1.4-2.3,2.5c-1.4,2-2,4.7-2,7.9
			c0,1.6,0.3,3,0.5,4.3 M28.6,18.1c0.2,0,0.3,0.1,0.5,0.2c0.1,0.2,0.2,0.4,0.2,0.5c0,0.2-0.1,0.4-0.2,0.5c-0.2,0.1-0.3,0.2-0.5,0.2
			s-0.4-0.1-0.5-0.2c-0.1-0.1-0.2-0.3-0.2-0.5c0-0.2,0.1-0.4,0.2-0.5C28.2,18.1,28.4,18.1,28.6,18.1z"/>
		<path class="st0" d="M29.1,18.2c-0.2-0.1-0.3-0.2-0.5-0.2s-0.4,0.1-0.5,0.2c-0.1,0.2-0.2,0.4-0.2,0.5c0,0.2,0.1,0.4,0.2,0.5
			c0.2,0.1,0.4,0.2,0.5,0.2c0.2,0,0.3-0.1,0.5-0.2c0.1-0.1,0.2-0.3,0.2-0.5C29.3,18.6,29.2,18.4,29.1,18.2z"/>
	</g>
</g>
</svg>
