<?xml version="1.0" encoding="utf-8"?>
<!-- Generator: Adobe Illustrator 19.2.1, SVG Export Plug-In . SVG Version: 6.00 Build 0)  -->
<svg version="1.1" id="Layer_1" xmlns="http://www.w3.org/2000/svg" xmlns:xlink="http://www.w3.org/1999/xlink" x="0px" y="0px"
	 viewBox="0 0 532.7 215.9" style="enable-background:new 0 0 532.7 215.9;" xml:space="preserve">
<style type="text/css">
	.st0{fill:#38294A;}
	.st1{fill:#DDB128;}
</style>
<g>
	<g>
		<g>
			<g>
				<path class="st0" d="M46,60.4c-0.2-1.8-0.2-4.1-0.5-7.2l0.5-4.1c-4.1,0.5-7.4,1.4-10.4,2.3c-6.8,2.5-13.1,6.3-18.7,11.7
					C10.9,69,6.3,76,3.6,84.1C0.9,92.5-0.2,99,0,103.3C1.2,95.9,2.5,90.9,4.5,88c-1.4,15.6-2.7,30-2.9,43.1H10
					c0.2-4.1,0.9-8.1,2.9-12c4.1-9.2,11.1-13.8,21.2-14.2c5.2,0,9.5,0.7,12.9,2.7c4.1,2,7.4,5.9,10.1,11.7c1.8,3.8,2.9,7.2,3.4,10.1
					c0,0.7,0,1.1,0.2,1.6h7.9c-0.2-23-0.2-36.5,0.2-41.3c0.2-2.9,0.9-6.3,1.8-10.1c0.7-3.2,1.4-5.6,1.8-7.4c0.2-0.2,2.3-4.3,6.1-12
					c3.8-7.9,6.8-13.8,8.3-17.8c2-5.2,3.4-10.8,4.5-16.5c1.1-6.1,1.1-10.8,0.5-15.1c-0.7-3.8-2-6.8-4.1-8.3c-2-1.6-4.5-2.3-7.9-2.5
					c-3.4,0-6.3,0.9-8.6,2.9c-0.5,0.2-1.8,1.8-4.1,4.7c-1.6,1.8-3.4,2.7-5.4,2c-2.3-0.5-3.2-2.5-2.9-5.9l-4.1,1.4
					c0.2,2.7,0.7,4.5,1.4,5.6c1.1,2,3.4,3.4,6.1,4.1c3.4,1.1,7.2-0.2,10.4-3.8c2.9-3.2,5.9-4.3,8.8-2.9c1.6,0.9,2,2.3,2,4.3
					c0.2,2,0,3.8-0.9,5.6c-1.1,2.3-2.5,3.8-4.1,4.7c-1.4,0.7-5,1.6-10.6,3.4c-4.7,1.1-8.3,2.9-10.8,4.7c-1.8,1.4-3.8,3.4-5.6,6.3
					c-3.4,5-5,11.7-5,19.6c0,4.1,0.7,7.4,1.4,10.6 M64.5,36.8c0.5,0,0.7,0.2,1.1,0.5c0.2,0.5,0.5,0.9,0.5,1.4c0,0.5-0.2,0.9-0.5,1.1
					c-0.5,0.2-0.7,0.5-1.1,0.5s-0.9-0.2-1.4-0.5c-0.2-0.2-0.5-0.7-0.5-1.1c0-0.5,0.2-0.9,0.5-1.4C63.6,37,64.1,36.8,64.5,36.8z"/>
				<path class="st0" d="M65.7,37.2c-0.5-0.2-0.7-0.5-1.1-0.5s-0.9,0.2-1.4,0.5c-0.2,0.5-0.5,0.9-0.5,1.4c0,0.5,0.2,0.9,0.5,1.1
					c0.5,0.2,0.9,0.5,1.4,0.5c0.5,0,0.7-0.2,1.1-0.5c0.2-0.2,0.5-0.7,0.5-1.1C66.1,38.1,65.9,37.7,65.7,37.2z"/>
			</g>
		</g>
	</g>
	<path class="st0" d="M122.4,85.7h-12.6v44.5h-9.6V85.7H87.6v-8.8h34.8V85.7z"/>
	<path class="st0" d="M126.4,77.4c2.1-0.5,4.3-0.8,6.7-1c2.4-0.2,4.4-0.3,6.2-0.3c2.2,0,4.3,0.2,6.4,0.6c2.1,0.4,3.9,1.2,5.5,2.4
		c1.6,1.1,2.9,2.7,3.9,4.6c1,2,1.5,4.4,1.5,7.4c0,4.3-0.8,7.8-2.4,10.5c-1.6,2.7-3.8,4.6-6.6,5.6l3,2.4l9.8,20.4h-11l-9.3-21l-4.1-1
		v22h-9.6V77.4z M136,101.7h3.3c2.4,0,4.2-0.7,5.4-2.2c1.2-1.4,1.8-3.7,1.8-6.7c0-2.3-0.5-4.1-1.5-5.6c-1-1.4-2.6-2.2-4.8-2.2
		c-0.8,0-1.6,0-2.4,0.1c-0.8,0.1-1.4,0.2-1.8,0.3V101.7z"/>
	<path class="st0" d="M165.6,76.9h9.6v53.3h-9.6V76.9z"/>
	<path class="st0" d="M206.4,76.9h9.1v34.6c0,6.9-1.4,11.9-4.2,15c-2.8,3.1-6.7,4.6-11.7,4.6c-5.8,0-10.1-1.5-12.8-4.5
		c-2.7-3-4.1-7.6-4.1-13.8V76.9h9.6v34.2c0,4.2,0.6,7.1,1.7,8.7c1.1,1.7,3,2.5,5.6,2.5c2.5,0,4.3-0.9,5.3-2.6
		c1.1-1.8,1.6-4.6,1.6-8.6V76.9z"/>
	<path class="st0" d="M256.2,102.7l1.1-10.2h-0.4l-2.8,9.1l-8.7,18.7h-3.2l-9.2-18.8l-2.8-9.2h-0.5l1.4,10.3v27.6h-9.1V76.9h9.2
		l11.1,23.1l1.8,6.6h0.3l1.8-6.8l10.4-22.9h9.1v53.3h-9.6V102.7z"/>
	<path class="st0" d="M371.1,118h-12.6l-3.1,12.2h-9.5l15.5-53.7h7.5l15.5,53.7h-10.1L371.1,118z M360.5,110.3h8.8l-3-12.4l-1.2-8.4
		h-0.3l-1.3,8.5L360.5,110.3z"/>
	<path class="st0" d="M399.4,104l-3.5-9.4h-0.4l1.2,9.2v26.3h-9.1V76.5h7.4l15.3,26.8l3.3,9.2h0.5l-1.2-9.1V76.9h9.1v53.7h-7.4
		L399.4,104z"/>
	<path class="st0" d="M460.8,85.7h-12.6v44.5h-9.6V85.7H426v-8.8h34.8V85.7z"/>
	<path class="st0" d="M272.6,77.4c1.8-0.4,3.8-0.7,6-1c2.2-0.2,4.4-0.3,6.6-0.3c2.3,0,4.6,0.2,6.9,0.6c2.3,0.4,4.3,1.3,6.1,2.6
		c1.8,1.3,3.2,3.1,4.3,5.4c1.1,2.3,1.7,5.3,1.7,9c0,3.4-0.5,6.2-1.4,8.5c-0.9,2.3-2.2,4.2-3.8,5.7c-1.6,1.5-3.4,2.5-5.4,3.2
		c-2.1,0.7-4.2,1-6.4,1c-0.2,0-0.5,0-1,0s-0.9,0-1.4,0c-0.5,0-1-0.1-1.5-0.1c-0.5,0-0.8-0.1-1-0.2v18.4h-9.6V77.4z M282.2,103.2
		c0.3,0.1,0.9,0.2,1.7,0.3c0.8,0.1,1.4,0.1,1.7,0.1c1.1,0,2.2-0.2,3.2-0.5c1-0.3,1.9-0.8,2.7-1.6c0.8-0.7,1.4-1.8,1.9-3
		s0.7-2.9,0.7-4.9c0-1.7-0.2-3.1-0.6-4.3c-0.4-1.2-1-2.1-1.8-2.8c-0.7-0.7-1.6-1.2-2.6-1.5c-1-0.3-2-0.5-3-0.5
		c-1.6,0-2.9,0.1-3.9,0.4V103.2z"/>
	<g>
		<path class="st1" d="M271.2,214.2c-0.7,1.5-1.8,2.3-3.6,1.2c-4.8-3.2-6.5-7.7-5.8-16.4c1.6-19.3,7.4-48.9,11.7-61.3
			c0.7-2,1.9-2.3,3-0.9c2.6,3.2,3.5,7.6,1.4,17.6c-2.4,11.6-6,28.4-8.7,46.6c8.6-20.3,23.7-48.8,34-66c0.7-1.1,1.9-1.7,3.1-0.3
			c3,3.2,4,6.2,2.4,15.9c-2.2,12.1-5.1,27.8-7.2,46.2c9.4-22,28.5-57,37.5-70.2c1.3-1.7,2.5-1.6,3,0.1c1.4,4.2,0.6,9.7-4.5,18.8
			c-7.2,13.1-22,38.3-33.4,63.3c-0.8,1.6-1.8,2.4-3.6,1.2c-4.7-3.2-6.9-7.4-6.3-16.3c0.6-9.4,2.8-23.4,5.1-35.6
			C290.4,174.1,279.2,196.1,271.2,214.2z"/>
		<path class="st1" d="M446.2,176c-2.4,7.2-9.3,14.8-16.3,15.7c-10.6,1.4-15.5-6.3-12.6-16.9c2.9-10.9,11.8-26,9.8-26.5
			c-1-0.2-5.1,2-11.8,11c-8.6,11.5-12.8,24.1-16.3,36.2c-0.4,1.6-1.4,2.1-2.7,1.2c-2.3-1.7-4.4-6.1-2.4-15.3
			c2.4-10.7,13-29.5,10.6-30.1c-1.3-0.3-6.9,3.9-13.5,13.6c-6,8.8-10.2,20.9-13.4,33.1c-0.3,1.1-0.9,1.5-2.3,0.7
			c-2.9-1.7-4.1-5.8-3.1-12.2c0.6-4.2,2.8-10.9,5.3-18.3c-3.1,2.8-6.6,4.5-10.9,4.8c-0.9,10.9-6.7,24.8-15.3,29.1
			c-4.2,2.1-10.5,2.9-16.3-3c-6.3-6.3-6.1-17.4-2-27.9c3.4-8.9,9.8-17.2,17.1-18.8c3.8-0.8,5.8,0,8.8,2.9c3.5,3.4,7.3,3.4,7.9,12.6
			c0.1,0.6,0.2,1.3,0,2c7.8-1.3,14.4-11.5,19.2-22.4c0.6-1.3,1.8-1.5,2.7-0.4c2.4,2.9,2.8,7.7,1.6,12.8c4.6-6.9,12.5-15.5,16.9-16
			c4.2-0.5,7.2,5.7,6.6,11.3c4.9-6.4,12.3-13.3,16.2-13.8c4.4-0.5,6.5,6.5,4.9,12.8c-1.5,5.9-6.2,14.8-8.2,21.2
			c-2.4,7.5,0.1,13,4.5,12.1c4.9-1,9.2-9.8,12.6-19.1c0.4-1.2,1.3-1.1,2.1-0.3C446.6,168.9,447.2,172.8,446.2,176z M348.7,161.9
			c-2.9,3.3-5.7,8-7.7,13c-4,10-4,21.4-0.4,23.7c3.7,2.4,10.5-3.2,14.9-15.1c1.5-4.1,2.5-7.9,2.8-11.2
			C353.8,170.7,349.7,166.6,348.7,161.9z M358.4,160.5c-1.2-3.8-3.7-2.8-3.6,0.9c0,2.6,1.4,6.1,4.2,7.8
			C359.1,165.5,359.1,162.6,358.4,160.5z"/>
		<path class="st1" d="M461.4,183.1c10.2-1,17.7-12.1,21.8-21c0.5-1.1,1.4-1.2,2.1-0.2c0.6,0.9,0.8,4.4-1,7.9
			c-4,8.2-12.6,15.3-22,16.8c-15.5,2.6-23.2-12-17.6-28.9c5.6-17,17.2-25.2,23.8-22.6c3.3,1.4,5.8,2.9,8.2,5.3
			c2.6,2.6,2.8,10.2-1.4,17.2c-4.9,8.2-12.6,12.6-22.3,6.9C450.7,176.4,454.8,183.7,461.4,183.1z M467.4,153.4
			c3.2-5.7,4.9-12.5,3-13.6c-2.9-1.7-12,7.2-16,19.6c-0.3,0.8-0.5,1.6-0.7,2.2C460.3,164.6,464.5,158.6,467.4,153.4z"/>
		<path class="st1" d="M514.4,127.8c4.1,0,8.8,5.4,6.7,12.3c-1.8,5.8-6.4,15.7-8.3,22.5c-2.1,7.6-0.5,13.2,3.8,12.3
			c5-1,9.8-10,13.2-19.2c0.4-1.2,1.3-1.3,2.1-0.4c1.1,1.2,1.2,4.1,0,7.9c-2.3,7.3-9.1,14.7-16.2,15.8c-10.4,1.5-14-5.7-12-16.9
			c2.3-12.6,11.1-27.2,8.8-27.8c-1.3-0.3-7.9,4.2-14.5,13.9c-6.1,8.9-9.7,21.5-13.3,33.8c-0.3,1.2-1,1.8-2.3,0.8
			c-2.8-2.1-4.1-6-3.1-12.4c1.3-8.1,8.2-26.5,14.2-39c0.7-1.5,1.7-1.5,2.6-0.4c2.3,2.8,2.8,7,2.1,11.6
			C502.9,135.8,510.2,127.8,514.4,127.8z"/>
	</g>
	<path class="st0" d="M318.5,107.7h14.5v22.5h3.5c0.9-1.3,1.7-2.6,2.4-3.7c1.3-1.7,2.5-1.6,3,0.1c0.4,1.1,0.6,2.3,0.6,3.6h0.1V76.9
		h-9.6v21.9h-14.5V76.9h-9.6v53.3h9.6V107.7z"/>
</g>
</svg>
